<?xml version="1.0" encoding="UTF-8" standalone="no"?>
<!-- Created with Inkscape (http://www.inkscape.org/) -->

<svg
   xmlns:dc="http://purl.org/dc/elements/1.1/"
   xmlns:cc="http://creativecommons.org/ns#"
   xmlns:rdf="http://www.w3.org/1999/02/22-rdf-syntax-ns#"
   xmlns:svg="http://www.w3.org/2000/svg"
   xmlns="http://www.w3.org/2000/svg"
   xmlns:sodipodi="http://sodipodi.sourceforge.net/DTD/sodipodi-0.dtd"
   xmlns:inkscape="http://www.inkscape.org/namespaces/inkscape"
   width="16"
   height="16"
   id="svg2"
   version="1.1"
   inkscape:version="0.48.5 r10040"
   sodipodi:docname="print.svg">
  <defs
     id="defs4" />
  <sodipodi:namedview
     id="base"
     pagecolor="#ffffff"
     bordercolor="#666666"
     borderopacity="1.0"
     inkscape:pageopacity="0.0"
     inkscape:pageshadow="2"
     inkscape:zoom="2.8"
     inkscape:cx="-38.017408"
     inkscape:cy="-19.46349"
     inkscape:document-units="px"
     inkscape:current-layer="layer1"
     showgrid="false"
     inkscape:snap-global="true"
     inkscape:window-width="1920"
     inkscape:window-height="1001"
     inkscape:window-x="-9"
     inkscape:window-y="-9"
     inkscape:window-maximized="1" />
  <metadata
     id="metadata7">
    <rdf:RDF>
      <cc:Work
         rdf:about="">
        <dc:format>image/svg+xml</dc:format>
        <dc:type
           rdf:resource="http://purl.org/dc/dcmitype/StillImage" />
        <dc:title></dc:title>
      </cc:Work>
    </rdf:RDF>
  </metadata>
  <g
     inkscape:label="Layer 1"
     inkscape:groupmode="layer"
     id="layer1"
     transform="translate(0,-1036.3622)">
    <g
       id="g3855"
       transform="translate(-17.232143,1.1607142)">
      <path
         inkscape:connector-curvature="0"
         id="path3851"
         d="m 20.11203,1050.6227 c -0.747073,-0.1829 -1.359496,-0.6809 -1.618621,-1.3164 l -0.100129,-0.2455 0,-5.3148 0,-5.3148 0.167526,-0.339 c 0.280604,-0.5678 0.831177,-0.9992 1.494274,-1.1711 0.48951,-0.1268 0.436415,-0.4292 0.436415,2.4857 l 0,2.5558 0.105563,0.2781 c 0.212354,0.5596 0.821566,1.0588 1.508023,1.2359 0.411204,0.1061 5.781266,0.1061 6.19247,0 0.686457,-0.1771 1.295669,-0.6763 1.508023,-1.2359 l 0.105564,-0.2781 0,-2.5558 0,-2.5558 0.127485,0 c 0.215271,0 0.662367,0.1341 0.942215,0.2828 0.414521,0.2201 0.744101,0.5535 0.944964,0.9558 l 0.172836,0.3462 0.01206,5.2198 c 0.0134,5.7997 0.03014,5.4502 -0.285989,5.9724 -0.191655,0.3165 -0.462588,0.5583 -0.853315,0.7614 -0.6054,0.3148 -0.344137,0.3013 -5.750613,0.2971 -3.915101,0 -4.911088,-0.015 -5.108755,-0.064 z m 10.178572,-3.5039 0,-0.4018 -5,0 -5,0 0,0.4018 0,0.4018 5,0 5,0 0,-0.4018 z m 0,-2.0312 0,-0.4241 -5,0 -5,0 0,0.4241 0,0.4241 5,0 5,0 0,-0.4241 z"
         style="fill:#4d4d4d;fill-opacity:1;stroke:none" />
      <path
         inkscape:connector-curvature="0"
         id="path3853"
         d="m 22.468301,1042.6978 c -0.501034,-0.084 -0.992258,-0.4392 -1.098381,-0.7935 -0.07017,-0.2342 -0.07403,-4.9072 -0.0042,-5.1584 0.06852,-0.2468 0.35034,-0.5303 0.677278,-0.6813 l 0.278905,-0.1288 2.879464,0 2.879465,0 0.278905,0.1288 c 0.326938,0.151 0.608755,0.4345 0.677278,0.6813 0.06977,0.2512 0.06592,4.9242 -0.0042,5.1584 -0.110538,0.369 -0.594184,0.7073 -1.138505,0.7965 -0.310654,0.051 -5.121952,0.048 -5.425906,0 l -1e-6,0 z m 5.803773,-1.8848 -0.01272,-0.4576 -2.96875,0 -2.96875,0 -0.01272,0.4576 -0.01272,0.4576 2.994195,0 2.994195,0 -0.01272,-0.4576 0,0 z m 0.0096,-1.596 0,-0.4464 -2.991071,0 -2.991072,0 0,0.4464 0,0.4465 2.991072,0 2.991071,0 0,-0.4465 z m 0,-1.5848 0,-0.4687 -2.991071,0 -2.991072,0 0,0.4687 0,0.4688 2.991072,0 2.991071,0 0,-0.4688 z"
         style="fill:#4d4d4d;fill-opacity:1;stroke:none" />
    </g>
  </g>
</svg>
